<?xml version="1.0" encoding="utf-8"?>
<!-- Generator: Adobe Illustrator 21.0.0, SVG Export Plug-In . SVG Version: 6.00 Build 0)  -->
<svg version="1.1" id="Layer_1" xmlns="http://www.w3.org/2000/svg" xmlns:xlink="http://www.w3.org/1999/xlink" x="0px" y="0px"
	 viewBox="0 0 500 500" style="enable-background:new 0 0 500 500;" xml:space="preserve">
<style type="text/css">
	.st0{fill:#231F20;}
</style>
<path class="st0" d="M279.3,170.9l-36.7-20.6l-3.2-0.2v47.2l20.2-0.2l0.2,19.8h-40.2v-95.4c0,0-1.1-3.6-4.8-3.9l-19.6-0.3
	c0,0-5.6-0.3-5.6,6.1v101.2c0,0-1,3.4,7.1,8.7l38.1,21.6c0,0,5.4,1.2,8.7-1l38.1-21.2c0,0,4.8-4,5-8.5l0.2-45
	C286.9,179.2,287.5,177.1,279.3,170.9z M264.1,216.9l-0.2-19.8l10,9.6L264.1,216.9z"/>
</svg>
